<?xml version="1.0" encoding="UTF-8" standalone="no"?>
<svg
   xmlns:dc="http://purl.org/dc/elements/1.1/"
   xmlns:cc="http://creativecommons.org/ns#"
   xmlns:rdf="http://www.w3.org/1999/02/22-rdf-syntax-ns#"
   xmlns:svg="http://www.w3.org/2000/svg"
   xmlns="http://www.w3.org/2000/svg"
   xmlns:sodipodi="http://sodipodi.sourceforge.net/DTD/sodipodi-0.dtd"
   xmlns:inkscape="http://www.inkscape.org/namespaces/inkscape"
   inkscape:version="1.0 (4035a4fb49, 2020-05-01)"
   sodipodi:docname="database.svg"
   id="svg10"
   version="1.1"
   width="432pt"
   viewBox="-32 0 432 432"
   height="432pt">
  <metadata
     id="metadata16">
    <rdf:RDF>
      <cc:Work
         rdf:about="">
        <dc:format>image/svg+xml</dc:format>
        <dc:type
           rdf:resource="http://purl.org/dc/dcmitype/StillImage" />
      </cc:Work>
    </rdf:RDF>
  </metadata>
  <defs
     id="defs14" />
  <sodipodi:namedview
     inkscape:current-layer="svg10"
     inkscape:window-maximized="0"
     inkscape:window-y="213"
     inkscape:window-x="613"
     inkscape:cy="288"
     inkscape:cx="288"
     inkscape:zoom="0.2"
     showgrid="false"
     id="namedview12"
     inkscape:window-height="703"
     inkscape:window-width="1038"
     inkscape:pageshadow="2"
     inkscape:pageopacity="0"
     guidetolerance="10"
     gridtolerance="10"
     objecttolerance="10"
     borderopacity="1"
     bordercolor="#666666"
     pagecolor="#ffffff" />
  <path
     style="fill:#f1cc00;fill-opacity:1;stroke-width:1"
     id="path2"
     d="m 368.01562,186.35156 c -0.18359,0.14453 -0.42187,0.27344 -0.60937,0.41797 -1.8125,1.33594 -3.72656,2.63672 -5.78906,3.91016 -0.32813,0.19922 -0.6875,0.39062 -1.01563,0.59375 -1.86719,1.10156 -3.83203,2.18359 -5.88281,3.23828 l -1.67188,0.86328 c -2.35937,1.16797 -4.80078,2.30469 -7.39062,3.41016 l -1.52734,0.62109 c -2.27344,0.94531 -4.61719,1.85938 -7.03125,2.74609 l -1.97657,0.72656 c -2.82812,1.00391 -5.74218,1.97266 -8.74609,2.91407 l -2.02344,0.60547 c -2.61719,0.80078 -5.28125,1.54687 -8,2.28906 -0.71875,0.19141 -1.42187,0.39063 -2.14453,0.57813 -3.19922,0.84765 -6.49609,1.64453 -9.89453,2.39843 -0.80078,0.1836 -1.60156,0.35156 -2.40234,0.52735 -2.94141,0.65625 -5.9336,1.28515 -8.97266,1.88671 l -2.12891,0.42578 c -3.54297,0.6836 -7.14453,1.32423 -10.80859,1.9297 -0.88672,0.15234 -1.79297,0.28515 -2.6875,0.42968 -3.19922,0.51953 -6.48828,1.01563 -9.79297,1.48047 l -1.97656,0.28125 c -3.78906,0.53125 -7.6211,1.00781 -11.48828,1.42969 l -2.91016,0.32031 c -3.54297,0.38672 -7.10547,0.74219 -10.69531,1.07422 l -1.45703,0.13672 c -4,0.35156 -8,0.64453 -12,0.91796 l -2.97656,0.22266 c -3.8086,0.24219 -7.6211,0.44922 -11.44141,0.625 l -0.94922,0.0469 c -4.08203,0.17578 -8.16406,0.3125 -12.25,0.40234 l -2.99219,0.0625 c -4.11718,0.082 -8.23828,0.13672 -12.35156,0.13672 -4.10937,0 -8.23047,-0.0547 -12.35156,-0.13672 l -2.99219,-0.0625 c -4.08984,-0.0977 -8.17187,-0.23047 -12.24609,-0.40234 l -0.95313,-0.0469 c -3.82422,-0.17578 -7.63672,-0.38281 -11.4414,-0.625 l -2.99219,-0.19922 c -4,-0.26953 -8,-0.5664 -12,-0.91796 l -1.45313,-0.13672 c -3.58984,-0.32422 -7.15625,-0.6836 -10.69922,-1.07422 l -2.91015,-0.32031 c -3.86328,-0.44532 -7.69141,-0.92188 -11.48828,-1.42969 l -2.00782,-0.25 c -3.304683,-0.46094 -6.558589,-0.95703 -9.792964,-1.47656 -0.894531,-0.14453 -1.800781,-0.28125 -2.6875,-0.4336 -3.660156,-0.60937 -7.261719,-1.25 -10.808594,-1.92969 l -2.128906,-0.42187 c -3.039063,-0.60156 -6.03125,-1.23437 -8.972656,-1.89063 -0.800781,-0.17578 -1.601563,-0.34375 -2.402344,-0.52734 -3.375,-0.76563 -6.671875,-1.56641 -9.894531,-2.39844 -0.71875,-0.18359 -1.425782,-0.38281 -2.144532,-0.57812 -2.734374,-0.74219 -5.398437,-1.50391 -8,-2.28516 l -2.023437,-0.60938 c -3.007813,-0.93749 -5.921876,-1.91015 -8.746095,-2.91015 l -1.972656,-0.73047 c -2.417969,-0.88281 -4.761719,-1.80078 -7.035156,-2.74219 l -1.527344,-0.625 c -2.574219,-1.10546 -5.03125,-2.23828 -7.390625,-3.40625 l -1.671875,-0.86718 c -2.050781,-1.05469 -3.9999999,-2.13282 -5.8828129,-3.23829 -0.324218,-0.19921 -0.6875,-0.39062 -1.015624,-0.59374 -2.0625,-1.26954 -4.0000001,-2.57422 -5.78906309,-3.91016 C 0.42578101,186.67969 0.183594,186.55078 0,186.40625 V 272 c 0,20.03906 70.000001,48 184,48 114,0 184,-27.96094 184,-48 z m 0,0" />
  <path
     style="fill:#f1cc00;fill-opacity:1;stroke-width:1"
     id="path4"
     d="m 368.01562,298.35156 c -0.18359,0.14454 -0.42187,0.27344 -0.60937,0.41797 -1.8125,1.33594 -3.72656,2.63672 -5.78906,3.91016 -0.32813,0.19921 -0.6875,0.39062 -1.01563,0.59375 -1.86719,1.10156 -3.83203,2.18359 -5.88281,3.23828 l -1.67188,0.86328 c -2.35937,1.16797 -4.80078,2.30469 -7.39062,3.41015 l -1.52734,0.6211 c -2.27344,0.94531 -4.61719,1.85937 -7.03125,2.7461 l -1.97657,0.72656 c -2.82812,1.0039 -5.74218,1.97265 -8.74609,2.91406 l -2.02344,0.60547 c -2.61719,0.80078 -5.28125,1.54687 -8,2.28906 -0.71875,0.1914 -1.42187,0.39062 -2.14453,0.57812 -3.19922,0.84766 -6.49609,1.64454 -9.89453,2.39844 -0.80078,0.18359 -1.60156,0.35157 -2.40234,0.52734 -2.94141,0.65626 -5.9336,1.28516 -8.97266,1.88673 l -2.12891,0.42578 c -3.54297,0.67578 -7.14453,1.32031 -10.80859,1.92968 -0.88672,0.15235 -1.79297,0.28516 -2.6875,0.42969 -3.19922,0.51953 -6.48828,1.01562 -9.79297,1.48047 l -1.97656,0.28125 c -3.78906,0.53125 -7.6211,1.00781 -11.48828,1.42969 l -2.91016,0.32031 c -3.54297,0.38672 -7.10547,0.74219 -10.69531,1.07422 l -1.45703,0.13672 c -4,0.35156 -8,0.64453 -12,0.91797 l -2.97656,0.22265 c -3.8086,0.24219 -7.6211,0.44922 -11.44141,0.625 l -0.94922,0.0469 c -4.08203,0.17578 -8.16406,0.3125 -12.25,0.40234 l -2.99219,0.0625 c -4.11718,0.082 -8.23828,0.13672 -12.35156,0.13672 -4.10937,0 -8.23047,-0.0547 -12.35156,-0.13672 l -2.99219,-0.0625 c -4.08984,-0.0976 -8.17187,-0.23047 -12.24609,-0.40234 l -0.95313,-0.0469 c -3.82422,-0.17578 -7.63672,-0.38281 -11.4414,-0.625 l -2.99219,-0.19922 c -4,-0.26953 -8,-0.5664 -12,-0.91797 l -1.45313,-0.13672 c -3.58984,-0.32421 -7.15625,-0.68359 -10.69922,-1.07421 l -2.91015,-0.32032 c -3.86328,-0.44531 -7.69141,-0.92187 -11.48828,-1.42968 l -2.00782,-0.25 c -3.304683,-0.46094 -6.558589,-0.95703 -9.792964,-1.47657 -0.894531,-0.14453 -1.800781,-0.28125 -2.6875,-0.43359 -3.660156,-0.60938 -7.261719,-1.25 -10.808594,-1.92969 l -2.128906,-0.42187 c -3.039063,-0.59766 -6.03125,-1.22657 -8.972656,-1.89062 -0.800781,-0.17579 -1.601563,-0.34376 -2.402344,-0.52735 -3.375,-0.76562 -6.671875,-1.56641 -9.894531,-2.39844 -0.71875,-0.18359 -1.425782,-0.38281 -2.144532,-0.57812 -2.734374,-0.74219 -5.398437,-1.50391 -8,-2.28516 l -2.023437,-0.60937 c -3.007813,-0.9336 -5.921876,-1.90235 -8.746095,-2.91016 l -1.972656,-0.73047 c -2.417969,-0.88281 -4.761719,-1.80078 -7.035156,-2.74218 l -1.527344,-0.625 c -2.574219,-1.10547 -5.03125,-2.23829 -7.390625,-3.40626 l -1.671875,-0.86719 c -2.050781,-1.05468 -3.9999999,-2.1328 -5.8828129,-3.23827 -0.324218,-0.19923 -0.6875,-0.39063 -1.015624,-0.59376 -2.0625,-1.26952 -4.0000001,-2.57422 -5.78906309,-3.91015 C 0.42578101,298.67969 0.183594,298.55078 0,298.40625 V 384 c 0,20.03906 70.000001,48 184,48 114,0 184,-27.96094 184,-48 z m 0,0" />
  <path
     style="fill:#f1cc00;fill-opacity:1;stroke-width:1"
     id="path6"
     d="m 368.01562,74.35156 c -0.18359,0.144536 -0.42187,0.273439 -0.60937,0.417969 -1.8125,1.33594 -3.72656,2.636721 -5.78906,3.910159 -0.32813,0.199221 -0.6875,0.390626 -1.01563,0.593752 -1.86719,1.10156 -3.83203,2.183593 -5.88281,3.199213 l -1.67188,0.863286 c -2.35937,1.167967 -4.80078,2.304686 -7.39062,3.406251 l -1.52734,0.625 c -2.27344,0.945309 -4.61719,1.859374 -7.03125,2.746092 l -1.97657,0.726561 c -2.82812,1.003904 -5.74218,1.972656 -8.74609,2.914064 l -2.02344,0.605468 c -2.61719,0.800779 -5.28125,1.542972 -8,2.289065 -0.71875,0.191404 -1.42187,0.39062 -2.14453,0.574214 -3.19922,0.847659 -6.49609,1.648437 -9.89453,2.402346 -0.80078,0.183595 -1.60156,0.351562 -2.40234,0.52735 -2.94141,0.65624 -5.9336,1.28515 -8.97266,1.88671 l -2.12891,0.42578 c -3.54297,0.6836 -7.14453,1.32422 -10.80859,1.92578 -0.88672,0.15235 -1.79297,0.28907 -2.6875,0.4336 -3.19922,0.51953 -6.48828,1.01562 -9.79297,1.48047 l -1.97656,0.28125 c -3.78906,0.53125 -7.6211,1.00781 -11.48828,1.42969 l -2.91016,0.32031 c -3.54297,0.38281 -7.10547,0.74218 -10.69531,1.07031 l -1.45703,0.13672 c -4,0.35156 -8,0.64843 -12,0.92187 l -2.97656,0.26172 c -3.8086,0.24219 -7.6211,0.44922 -11.44141,0.625 l -0.94922,0.0469 c -4.08203,0.17578 -8.16406,0.3125 -12.25,0.40234 l -2.99219,0.0625 c -4.11718,0.082 -8.23828,0.13672 -12.35156,0.13672 -4.10937,0 -8.23047,-0.0547 -12.35156,-0.13672 l -2.99219,-0.0625 c -4.08984,-0.0977 -8.17187,-0.23047 -12.24609,-0.40234 l -0.95313,-0.0469 c -3.82422,-0.17578 -7.63672,-0.38281 -11.4414,-0.625 l -2.99219,-0.19922 c -4,-0.26953 -8,-0.5664 -12,-0.91797 l -1.45313,-0.13672 c -3.58984,-0.32421 -7.15625,-0.68359 -10.69922,-1.07421 l -2.91015,-0.32032 c -3.86328,-0.44531 -7.69141,-0.92187 -11.48828,-1.42968 l -2.00782,-0.25 c -3.304683,-0.46094 -6.558589,-0.95703 -9.792964,-1.47657 -0.894531,-0.14453 -1.800781,-0.28125 -2.6875,-0.43359 -3.660156,-0.60938 -7.261719,-1.25 -10.808594,-1.92969 l -2.128906,-0.42187 c -3.039063,-0.60157 -6.03125,-1.23438 -8.972656,-1.89062 -0.800781,-0.17579 -1.601563,-0.343756 -2.402344,-0.52735 -3.375,-0.765625 -6.671875,-1.566403 -9.894531,-2.398435 -0.71875,-0.183594 -1.425782,-0.382815 -2.144532,-0.578126 -2.734374,-0.742187 -5.398437,-1.503907 -8,-2.285159 L 41.640626,93.847657 C 38.632813,92.910154 35.71875,91.937503 32.894531,90.937498 L 30.921875,90.207032 C 28.503906,89.32422 26.160156,88.406248 23.886719,87.464845 l -1.527344,-0.625 C 19.785156,85.734374 17.328125,84.601561 14.96875,83.433594 L 13.296875,82.566403 C 11.246094,81.511718 9.2968751,80.433596 7.4140621,79.36719 7.0898441,79.167969 6.7265621,78.976564 6.3984381,78.777343 4.3359381,77.503905 2.398438,76.199219 0.60937501,74.863279 0.42578101,74.718749 0.183594,74.593751 0,74.449221 V 160 c 0,20 70.000001,48 184,48 114,0 184,-28 184,-48 z m 0,0" />
  <path
     style="fill:#f1cc00;fill-opacity:1;stroke-width:1"
     id="path8"
     d="m 368.01562,48 c 0,-26.507812 -82.3789,-48 -184,-48 C 82.394532,0 0.015625,21.492188 0.015625,48 c 0,26.507812 82.378907,48.000002 183.999995,48.000002 101.6211,0 184,-21.49219 184,-48.000002 z m 0,0" />
</svg>
