<?xml version="1.0" encoding="UTF-8" standalone="no"?>
<svg
   xmlns:dc="http://purl.org/dc/elements/1.1/"
   xmlns:cc="http://creativecommons.org/ns#"
   xmlns:rdf="http://www.w3.org/1999/02/22-rdf-syntax-ns#"
   xmlns:svg="http://www.w3.org/2000/svg"
   xmlns="http://www.w3.org/2000/svg"
   xmlns:sodipodi="http://sodipodi.sourceforge.net/DTD/sodipodi-0.dtd"
   xmlns:inkscape="http://www.inkscape.org/namespaces/inkscape"
   viewBox="-42 0 512 512.002"
   version="1.1"
   id="svg6"
   sodipodi:docname="EmployeeManager.svg"
   inkscape:version="1.0 (4035a4fb49, 2020-05-01)">
  <metadata
     id="metadata12">
    <rdf:RDF>
      <cc:Work
         rdf:about="">
        <dc:format>image/svg+xml</dc:format>
        <dc:type
           rdf:resource="http://purl.org/dc/dcmitype/StillImage" />
      </cc:Work>
    </rdf:RDF>
  </metadata>
  <defs
     id="defs10" />
  <sodipodi:namedview
     inkscape:document-rotation="0"
     pagecolor="#ffffff"
     bordercolor="#666666"
     borderopacity="1"
     objecttolerance="10"
     gridtolerance="10"
     guidetolerance="10"
     inkscape:pageopacity="0"
     inkscape:pageshadow="2"
     inkscape:window-width="1722"
     inkscape:window-height="1211"
     id="namedview8"
     showgrid="false"
     inkscape:zoom="0.45"
     inkscape:cx="256"
     inkscape:cy="235.68347"
     inkscape:window-x="1281"
     inkscape:window-y="83"
     inkscape:window-maximized="0"
     inkscape:current-layer="svg6" />
  <path
     d="m210.351562 246.632812c33.882813 0 63.222657-12.152343 87.195313-36.128906 23.972656-23.972656 36.125-53.304687 36.125-87.191406 0-33.875-12.152344-63.210938-36.128906-87.191406-23.976563-23.96875-53.3125-36.121094-87.191407-36.121094-33.886718 0-63.21875 12.152344-87.191406 36.125s-36.128906 53.308594-36.128906 87.1875c0 33.886719 12.15625 63.222656 36.132812 87.195312 23.976563 23.96875 53.3125 36.125 87.1875 36.125zm0 0"
     id="path2"
     style="fill:#b01307;fill-opacity:1" />
  <path
     d="m426.128906 393.703125c-.691406-9.976563-2.089844-20.859375-4.148437-32.351563-2.078125-11.578124-4.753907-22.523437-7.957031-32.527343-3.308594-10.339844-7.808594-20.550781-13.371094-30.335938-5.773438-10.15625-12.554688-19-20.164063-26.277343-7.957031-7.613282-17.699219-13.734376-28.964843-18.199219-11.226563-4.441407-23.667969-6.691407-36.976563-6.691407-5.226563 0-10.28125 2.144532-20.042969 8.5-6.007812 3.917969-13.035156 8.449219-20.878906 13.460938-6.707031 4.273438-15.792969 8.277344-27.015625 11.902344-10.949219 3.542968-22.066406 5.339844-33.039063 5.339844-10.972656 0-22.085937-1.796876-33.046874-5.339844-11.210938-3.621094-20.296876-7.625-26.996094-11.898438-7.769532-4.964844-14.800782-9.496094-20.898438-13.46875-9.75-6.355468-14.808594-8.5-20.035156-8.5-13.3125 0-25.75 2.253906-36.972656 6.699219-11.257813 4.457031-21.003906 10.578125-28.96875 18.199219-7.605469 7.28125-14.390625 16.121094-20.15625 26.273437-5.558594 9.785157-10.058594 19.992188-13.371094 30.339844-3.199219 10.003906-5.875 20.945313-7.953125 32.523437-2.058594 11.476563-3.457031 22.363282-4.148437 32.363282-.679688 9.796875-1.023438 19.964844-1.023438 30.234375 0 26.726562 8.496094 48.363281 25.25 64.320312 16.546875 15.746094 38.441406 23.734375 65.066406 23.734375h246.53125c26.625 0 48.511719-7.984375 65.0625-23.734375 16.757813-15.945312 25.253906-37.585937 25.253906-64.324219-.003906-10.316406-.351562-20.492187-1.035156-30.242187zm0 0"
     id="path4"
     style="fill:#b01307;fill-opacity:1" />
  <path
     d="m 445.56596,376.19985 c -0.0918,0.0618 -0.21095,0.11703 -0.30471,0.17888 -0.90631,0.57176 -1.86341,1.12847 -2.89473,1.67348 -0.16408,0.0853 -0.34378,0.16718 -0.50785,0.25412 -0.93366,0.47145 -1.91615,0.93454 -2.94162,1.38593 l -0.83599,0.36947 c -1.17977,0.49987 -2.40056,0.98637 -3.69557,1.45949 l -0.76373,0.26582 c -1.1368,0.40458 -2.30876,0.79578 -3.51587,1.17528 l -0.98836,0.31095 c -1.41416,0.42966 -2.87129,0.84427 -4.37335,1.24718 l -1.01179,0.25913 c -1.30869,0.34272 -2.64081,0.66204 -4.00028,0.97968 -0.3594,0.0819 -0.71099,0.16718 -1.07234,0.24743 -1.59973,0.36278 -3.24828,0.70383 -4.94762,1.02649 -0.40042,0.0786 -0.80084,0.15046 -1.20126,0.2257 -1.4708,0.28086 -2.96701,0.55002 -4.48664,0.80748 l -1.06453,0.18222 c -1.77161,0.29257 -3.57252,0.56675 -5.40468,0.82589 -0.44339,0.0652 -0.89655,0.12203 -1.34384,0.18389 -1.59973,0.22235 -3.24437,0.43467 -4.89683,0.63362 l -0.98836,0.12037 c -1.89466,0.22736 -3.81081,0.43132 -5.74454,0.61188 l -1.45519,0.13709 c -1.7716,0.16551 -3.55298,0.31764 -5.34803,0.45975 l -0.72856,0.0585 c -2.00015,0.15046 -4.00029,0.27585 -6.00043,0.39287 l -1.48838,0.0953 c -1.90444,0.10365 -3.81082,0.19226 -5.72111,0.26749 l -0.47465,0.0201 c -2.04116,0.0752 -4.08231,0.13374 -6.12543,0.17219 l -1.4962,0.0267 c -2.05873,0.0351 -4.11943,0.0585 -6.17622,0.0585 -2.05483,0 -4.11552,-0.0234 -6.17621,-0.0585 l -1.4962,-0.0267 c -2.04507,-0.0418 -4.08623,-0.0986 -6.12348,-0.17219 l -0.4766,-0.0201 c -1.91224,-0.0752 -3.81863,-0.16384 -5.7211,-0.26749 l -1.4962,-0.0853 c -2.00015,-0.11535 -4.00029,-0.24241 -6.00043,-0.39287 l -0.72661,-0.0585 c -1.79505,-0.13876 -3.57838,-0.29257 -5.34999,-0.45975 l -1.45518,-0.13709 c -1.93178,-0.19059 -3.84598,-0.39455 -5.74455,-0.61188 l -1.00398,-0.107 c -1.65246,-0.19727 -3.27952,-0.40959 -4.89682,-0.63194 -0.4473,-0.0619 -0.90046,-0.12037 -1.34385,-0.18557 -1.83021,-0.2608 -3.63112,-0.53498 -5.40468,-0.82588 l -1.06453,-0.18055 c -1.51964,-0.25746 -3.01584,-0.52829 -4.48664,-0.80916 -0.40042,-0.0752 -0.80084,-0.14712 -1.20126,-0.22569 -1.68762,-0.32768 -3.33617,-0.6704 -4.94762,-1.0265 -0.35939,-0.0786 -0.71294,-0.16383 -1.07233,-0.24742 -1.36729,-0.31765 -2.69942,-0.64365 -4.00029,-0.97801 l -1.01179,-0.26081 c -1.50401,-0.40123 -2.96115,-0.81751 -4.37336,-1.24549 l -0.98639,-0.31263 c -1.20907,-0.37783 -2.38103,-0.77071 -3.51783,-1.17362 l -0.76373,-0.26749 c -1.2872,-0.47312 -2.5158,-0.95794 -3.69557,-1.45782 l -0.83599,-0.37113 c -1.02547,-0.45139 -2.00015,-0.91282 -2.94162,-1.38594 -0.16212,-0.0853 -0.34377,-0.16718 -0.50785,-0.25411 -1.03132,-0.54334 -2.00014,-1.10172 -2.89473,-1.67348 -0.0918,-0.0619 -0.21291,-0.11703 -0.30471,-0.17889 v 36.63272 c 0,8.57638 35.00247,20.54321 92.0065,20.54321 57.00403,0 92.0065,-11.96683 92.0065,-20.54321 z m 0,0"
     id="path2-4"
     style="fill:#f1cc00;fill-opacity:1;stroke-width:0.462608" />
  <path
     d="m 445.56596,424.134 c -0.0918,0.0619 -0.21095,0.11703 -0.30471,0.17888 -0.90631,0.57177 -1.86341,1.12848 -2.89473,1.67349 -0.16408,0.0853 -0.34378,0.16718 -0.50785,0.25411 -0.93366,0.47145 -1.91615,0.93454 -2.94162,1.38593 l -0.83599,0.36947 c -1.17977,0.49988 -2.40056,0.98637 -3.69557,1.45949 l -0.76373,0.26582 c -1.1368,0.40458 -2.30876,0.79578 -3.51587,1.17529 l -0.98836,0.31095 c -1.41416,0.42966 -2.87129,0.84427 -4.37335,1.24717 l -1.01179,0.25913 c -1.30869,0.34272 -2.64081,0.66204 -4.00028,0.97968 -0.3594,0.0819 -0.71099,0.16718 -1.07234,0.24743 -1.59973,0.36278 -3.24828,0.70384 -4.94762,1.02649 -0.40042,0.0786 -0.80084,0.15047 -1.20126,0.2257 -1.4708,0.28086 -2.96701,0.55002 -4.48664,0.80748 l -1.06453,0.18223 c -1.77161,0.28923 -3.57252,0.56507 -5.40468,0.82587 -0.44339,0.0652 -0.89655,0.12205 -1.34384,0.1839 -1.59973,0.22235 -3.24437,0.43467 -4.89683,0.63362 l -0.98836,0.12037 c -1.89466,0.22737 -3.81081,0.43133 -5.74454,0.61189 l -1.45519,0.13708 c -1.7716,0.16551 -3.55298,0.31765 -5.34803,0.45975 l -0.72856,0.0585 c -2.00015,0.15047 -4.00029,0.27585 -6.00043,0.39288 l -1.48838,0.0953 c -1.90444,0.10365 -3.81082,0.19226 -5.72111,0.26749 l -0.47465,0.0201 c -2.04116,0.0752 -4.08231,0.13374 -6.12543,0.17219 l -1.4962,0.0267 c -2.05873,0.0351 -4.11943,0.0585 -6.17622,0.0585 -2.05483,0 -4.11552,-0.0234 -6.17621,-0.0585 l -1.4962,-0.0267 c -2.04507,-0.0418 -4.08623,-0.0986 -6.12348,-0.17219 l -0.4766,-0.0201 c -1.91224,-0.0752 -3.81863,-0.16384 -5.7211,-0.26749 l -1.4962,-0.0853 c -2.00015,-0.11536 -4.00029,-0.24241 -6.00043,-0.39288 l -0.72661,-0.0585 c -1.79505,-0.13876 -3.57838,-0.29257 -5.34999,-0.45975 l -1.45518,-0.13709 c -1.93178,-0.19058 -3.84598,-0.39454 -5.74455,-0.61188 l -1.00398,-0.10699 c -1.65246,-0.19728 -3.27952,-0.4096 -4.89682,-0.63195 -0.4473,-0.0619 -0.90046,-0.12037 -1.34385,-0.18557 -1.83021,-0.2608 -3.63112,-0.53498 -5.40468,-0.82588 l -1.06453,-0.18055 c -1.51964,-0.25579 -3.01584,-0.52495 -4.48664,-0.80915 -0.40042,-0.0752 -0.80084,-0.14713 -1.20126,-0.2257 -1.68762,-0.32767 -3.33617,-0.6704 -4.94762,-1.02649 -0.35939,-0.0786 -0.71294,-0.16384 -1.07233,-0.24743 -1.36729,-0.31764 -2.69942,-0.64365 -4.00029,-0.97801 l -1.01179,-0.2608 c -1.50401,-0.39957 -2.96115,-0.81418 -4.37336,-1.2455 l -0.98639,-0.31263 c -1.20907,-0.37783 -2.38103,-0.7707 -3.51783,-1.17361 l -0.76373,-0.26746 c -1.2872,-0.47312 -2.5158,-0.95795 -3.69557,-1.45782 l -0.83599,-0.37114 c -1.02547,-0.45139 -2.00015,-0.91281 -2.94162,-1.38593 -0.16212,-0.0853 -0.34377,-0.16718 -0.50785,-0.25412 -1.03132,-0.54333 -2.00014,-1.10172 -2.89473,-1.67348 -0.0918,-0.0618 -0.21291,-0.11703 -0.30471,-0.17888 v 36.63271 c 0,8.57639 35.00247,20.54321 92.0065,20.54321 57.00403,0 92.0065,-11.96682 92.0065,-20.54321 z m 0,0"
     id="path4-1"
     style="fill:#f1cc00;fill-opacity:1;stroke-width:0.462608" />
  <path
     d="m 445.56596,328.26569 c -0.0918,0.0619 -0.21095,0.11703 -0.30471,0.17889 -0.90631,0.57176 -1.86341,1.12847 -2.89473,1.67348 -0.16408,0.0853 -0.34378,0.16718 -0.50785,0.25412 -0.93366,0.47144 -1.91615,0.93454 -2.94162,1.36921 l -0.83599,0.36947 c -1.17977,0.49987 -2.40056,0.98637 -3.69557,1.45782 l -0.76373,0.26749 c -1.1368,0.40458 -2.30876,0.79578 -3.51587,1.17528 l -0.98836,0.31096 c -1.41416,0.42965 -2.87129,0.84426 -4.37335,1.24717 l -1.01179,0.25913 c -1.30869,0.34272 -2.64081,0.66036 -4.00028,0.97968 -0.3594,0.0819 -0.71099,0.16718 -1.07234,0.24575 -1.59973,0.36279 -3.24828,0.70551 -4.94762,1.02817 -0.40042,0.0786 -0.80084,0.15046 -1.20126,0.22569 -1.4708,0.28087 -2.96701,0.55003 -4.48664,0.80749 l -1.06453,0.18222 c -1.77161,0.29257 -3.57252,0.56675 -5.40468,0.82421 -0.44339,0.0652 -0.89655,0.12371 -1.34384,0.18557 -1.59973,0.22235 -3.24437,0.43467 -4.89683,0.63362 l -0.98836,0.12037 c -1.89466,0.22736 -3.81081,0.43132 -5.74454,0.61188 l -1.45519,0.13709 c -1.7716,0.16383 -3.55298,0.31764 -5.34803,0.45807 l -0.72856,0.0585 c -2.00015,0.15046 -4.00029,0.27751 -6.00043,0.39454 l -1.48838,0.11201 c -1.90444,0.10366 -3.81082,0.19226 -5.72111,0.26749 l -0.47465,0.0201 c -2.04116,0.0752 -4.08231,0.13375 -6.12543,0.1722 l -1.4962,0.0267 c -2.05873,0.0351 -4.11943,0.0585 -6.17622,0.0585 -2.05483,0 -4.11552,-0.0234 -6.17621,-0.0585 l -1.4962,-0.0267 c -2.04507,-0.0418 -4.08623,-0.0986 -6.12348,-0.1722 l -0.4766,-0.0201 c -1.91224,-0.0752 -3.81863,-0.16383 -5.7211,-0.26749 l -1.4962,-0.0853 c -2.00015,-0.11535 -4.00029,-0.24241 -6.00043,-0.39288 l -0.72661,-0.0585 c -1.79505,-0.13876 -3.57838,-0.29256 -5.34999,-0.45974 l -1.45518,-0.13709 c -1.93178,-0.19059 -3.84598,-0.39455 -5.74455,-0.61188 l -1.00398,-0.107 c -1.65246,-0.19727 -3.27952,-0.40959 -4.89682,-0.63195 -0.4473,-0.0618 -0.90046,-0.12037 -1.34385,-0.18557 -1.83021,-0.2608 -3.63112,-0.53498 -5.40468,-0.82587 l -1.06453,-0.18056 c -1.51964,-0.25746 -3.01584,-0.52829 -4.48664,-0.80915 -0.40042,-0.0752 -0.80084,-0.14712 -1.20126,-0.2257 -1.68762,-0.32767 -3.33617,-0.67039 -4.94762,-1.02649 -0.35939,-0.0786 -0.71294,-0.16384 -1.07233,-0.24743 -1.36729,-0.31764 -2.69942,-0.64365 -4.00029,-0.97801 l -1.01179,-0.2608 c -1.50401,-0.40124 -2.96115,-0.81751 -4.37336,-1.2455 l -0.98639,-0.31263 c -1.20907,-0.37782 -2.38103,-0.7707 -3.51783,-1.17361 l -0.76373,-0.26749 c -1.2872,-0.47312 -2.5158,-0.95794 -3.69557,-1.45782 l -0.83599,-0.37114 c -1.02547,-0.45139 -2.00015,-0.91281 -2.94162,-1.36921 -0.16212,-0.0853 -0.34377,-0.16718 -0.50785,-0.25245 -1.03132,-0.545 -2.00014,-1.10339 -2.89473,-1.67515 -0.0918,-0.0619 -0.21291,-0.11535 -0.30471,-0.17721 v 36.61432 c 0,8.55967 35.00247,20.54321 92.0065,20.54321 57.00403,0 92.0065,-11.98354 92.0065,-20.54321 z m 0,0"
     id="path6"
     style="fill:#f1cc00;fill-opacity:1;stroke-width:0.462608" />
  <path
     d="m 445.56596,316.98766 c 0,-11.34491 -41.19236,-20.54321 -92.0065,-20.54321 -50.81414,0 -92.0065,9.1983 -92.0065,20.54321 0,11.34491 41.19236,20.54321 92.0065,20.54321 50.81414,0 92.0065,-9.1983 92.0065,-20.54321 z m 0,0"
     id="path8"
     style="fill:#f1cc00;fill-opacity:1;stroke-width:0.462608" />
</svg>
